<svg width="15" height="15" viewBox="0 0 15 15" fill="none" xmlns="http://www.w3.org/2000/svg">
<path fill-rule="evenodd" clip-rule="evenodd" d="M0 7.5C0 3.35775 3.35775 0 7.5 0C11.6423 0 15 3.35775 15 7.5C15 11.6423 11.6423 15 7.5 15C3.35775 15 0 11.6423 0 7.5ZM8.25 3.75C8.25 3.55109 8.17098 3.36032 8.03033 3.21967C7.88968 3.07902 7.69891 3 7.5 3C7.30109 3 7.11032 3.07902 6.96967 3.21967C6.82902 3.36032 6.75 3.55109 6.75 3.75V6.573C6.75001 6.99079 6.86635 7.40032 7.08598 7.75572C7.3056 8.11113 7.61984 8.39836 7.9935 8.58525L10.1648 9.6705C10.2532 9.71817 10.3502 9.7476 10.4502 9.75705C10.5502 9.76649 10.6511 9.75574 10.7469 9.72546C10.8426 9.69517 10.9314 9.64596 11.0077 9.58074C11.0841 9.51551 11.1466 9.43561 11.1916 9.34578C11.2365 9.25594 11.2629 9.15799 11.2692 9.05775C11.2756 8.95751 11.2617 8.85701 11.2285 8.76223C11.1953 8.66744 11.1433 8.5803 11.0758 8.50596C11.0082 8.43163 10.9264 8.37162 10.8353 8.3295L8.66475 7.2435C8.54019 7.18126 8.43542 7.08557 8.36216 6.96714C8.28891 6.84872 8.25007 6.71225 8.25 6.573V3.75Z" fill="#1B2428"/>
</svg>
