<svg width="16" height="16" viewBox="0 0 16 16" fill="none" xmlns="http://www.w3.org/2000/svg">
<g clip-path="url(#clip0_89_1778)">
<path d="M14.6667 1.99984C15.0349 1.99984 15.3334 1.70136 15.3334 1.33317C15.3334 0.96498 15.0349 0.666504 14.6667 0.666504C14.2986 0.666504 14.0001 0.96498 14.0001 1.33317C14.0001 1.70136 14.2986 1.99984 14.6667 1.99984Z" fill="#002F3F"/>
<path fill-rule="evenodd" clip-rule="evenodd" d="M7.33342 1.33317C4.01971 1.33317 1.33341 4.01946 1.33341 7.33317C1.33341 10.6469 4.01971 13.3332 7.33342 13.3332C8.75009 13.3332 10.0521 12.8422 11.0785 12.0211L14.1953 15.1379C14.4557 15.3983 14.8778 15.3983 15.1382 15.1379C15.3985 14.8776 15.3985 14.4555 15.1382 14.1951L12.0213 11.0783C12.8424 10.0518 13.3334 8.74985 13.3334 7.33317C13.3334 4.01946 10.6471 1.33317 7.33342 1.33317ZM2.53341 7.33317C2.53341 9.98414 4.68245 12.1332 7.33342 12.1332C9.98438 12.1332 12.1334 9.98414 12.1334 7.33317C12.1334 4.6822 9.98438 2.53317 7.33342 2.53317C4.68245 2.53317 2.53341 4.6822 2.53341 7.33317Z" fill="#002F3F"/>
<path d="M2.00008 14.6665C2.00008 15.0347 1.7016 15.3332 1.33341 15.3332C0.965225 15.3332 0.666748 15.0347 0.666748 14.6665C0.666748 14.2983 0.965225 13.9998 1.33341 13.9998C1.7016 13.9998 2.00008 14.2983 2.00008 14.6665Z" fill="#002F3F"/>
</g>
<defs>
<clipPath id="clip0_89_1778">
<rect width="16" height="16" fill="white"/>
</clipPath>
</defs>
</svg>
