<svg width="20" height="20" viewBox="0 0 20 20" fill="none" xmlns="http://www.w3.org/2000/svg">
<path d="M3.4375 17.0393H16.5625C18.3118 17.0393 19.1911 16.1775 19.1911 14.4532V5.55533C19.1911 3.83104 18.3118 2.96033 16.5625 2.96033H3.4375C1.68822 2.96033 0.808929 3.83104 0.808929 5.55533V14.4532C0.808929 16.1775 1.68786 17.0393 3.4375 17.0393ZM2.15679 5.63104C2.15679 4.76033 2.62572 4.30854 3.4625 4.30854H16.5457C17.3743 4.30854 17.8432 4.76033 17.8432 5.63104V6.3339H2.15679V5.63104ZM3.4625 15.6925C2.62536 15.6925 2.15679 15.2485 2.15679 14.3782V8.2339H17.8432V14.3778C17.8432 15.2482 17.3743 15.6921 16.5457 15.6921L3.4625 15.6925ZM4.425 13.2143H6.47607C6.97 13.2143 7.29643 12.8878 7.29643 12.4107V10.8621C7.29643 10.3935 6.97 10.0585 6.47607 10.0585H4.425C3.93107 10.0585 3.60464 10.3935 3.60464 10.8621V12.4107C3.60464 12.8878 3.93107 13.2143 4.425 13.2143Z" fill="black"/>
</svg>
