<svg width="21" height="22" viewBox="0 0 21 22" fill="none" xmlns="http://www.w3.org/2000/svg">
<path d="M3.9375 4.10938V4.4375H4.59375C4.7678 4.4375 4.93472 4.36836 5.05779 4.24529C5.18086 4.12222 5.25 3.9553 5.25 3.78125V3.125H4.92188C4.6608 3.125 4.41042 3.22871 4.22582 3.41332C4.04121 3.59792 3.9375 3.8483 3.9375 4.10938ZM4.92188 1.8125H10.8281C12.096 1.8125 13.125 2.8415 13.125 4.10938V4.82206L17.0297 8.72675C17.4562 9.15335 17.7946 9.6598 18.0254 10.2172C18.2563 10.7745 18.375 11.3719 18.375 11.9752V19.5312C18.375 19.7053 18.3059 19.8722 18.1828 19.9953C18.0597 20.1184 17.8928 20.1875 17.7188 20.1875C17.5447 20.1875 17.3778 20.1184 17.2547 19.9953C17.1316 19.8722 17.0625 19.7053 17.0625 19.5312V11.9752C17.0626 11.5443 16.9778 11.1175 16.8129 10.7194C16.6481 10.3212 16.4064 9.95944 16.1017 9.65469L13.125 6.67794V10.0707L14.2459 11.1916C14.3691 11.3147 14.4384 11.4816 14.4385 11.6558C14.4386 11.8299 14.3696 11.997 14.2465 12.1202C14.1235 12.2434 13.9565 12.3127 13.7824 12.3129C13.6082 12.313 13.4412 12.2439 13.3179 12.1209L12.0277 10.8294L11.9831 10.7847L10.3766 9.17825C10.2873 9.08553 10.1804 9.01155 10.0621 8.96064C9.94384 8.90973 9.81661 8.88291 9.68786 8.88174C9.55911 8.88058 9.43142 8.9051 9.31226 8.95386C9.1931 9.00262 9.08485 9.07465 8.99385 9.16574C8.90285 9.25682 8.83092 9.36514 8.78227 9.48435C8.73363 9.60356 8.70923 9.73128 8.71052 9.86002C8.71181 9.98877 8.73875 10.116 8.78978 10.2342C8.8408 10.3524 8.91488 10.4593 9.00769 10.5485L10.9646 12.5041C11.0258 12.5651 11.0743 12.6375 11.1074 12.7172C11.1405 12.7969 11.1575 12.8824 11.1576 12.9688V14.2812C11.1576 14.6291 11.2957 14.9628 11.5415 15.2089C11.7874 15.455 12.1209 15.5934 12.4688 15.5938C12.6428 15.5938 12.8097 15.6629 12.9328 15.786C13.0559 15.909 13.125 16.076 13.125 16.25V17.8906C13.125 18.4998 12.883 19.084 12.4523 19.5148C12.0215 19.9455 11.4373 20.1875 10.8281 20.1875H4.92188C4.31271 20.1875 3.72849 19.9455 3.29774 19.5148C2.86699 19.084 2.625 18.4998 2.625 17.8906V4.10938C2.625 2.8415 3.654 1.8125 4.92188 1.8125ZM10.5 18.875H10.8281C11.0892 18.875 11.3396 18.7713 11.5242 18.5867C11.7088 18.4021 11.8125 18.1517 11.8125 17.8906V17.5625H11.1562C10.9822 17.5625 10.8153 17.6316 10.6922 17.7547C10.5691 17.8778 10.5 18.0447 10.5 18.2188V18.875ZM10.7756 16.2867C10.4839 16.0405 10.2494 15.7337 10.0885 15.3875C9.92752 15.0414 9.84401 14.6643 9.84375 14.2826V13.2404L9.59044 12.9871C9.26694 13.2659 8.88032 13.4615 8.4641 13.5571C8.04788 13.6526 7.61464 13.6452 7.20195 13.5354C6.78926 13.4256 6.40958 13.2168 6.09586 12.9271C5.78214 12.6373 5.54384 12.2754 5.40163 11.8728C5.25943 11.4701 5.21761 11.0388 5.2798 10.6163C5.342 10.1938 5.50633 9.79289 5.75855 9.44828C6.01076 9.10368 6.34324 8.82581 6.72715 8.63878C7.11106 8.45175 7.5348 8.3612 7.96163 8.375C8.06663 8.2525 8.18738 8.14006 8.32387 8.03769C8.76322 7.70895 9.30623 7.54939 9.85358 7.58819C10.4009 7.62699 10.916 7.86157 11.3046 8.249L11.8125 8.75825V5.75H11.1562C10.6341 5.75 10.1333 5.54258 9.76413 5.17337C9.39492 4.80415 9.1875 4.3034 9.1875 3.78125V3.125H6.5625V3.78125C6.5625 4.3034 6.35508 4.80415 5.98587 5.17337C5.61665 5.54258 5.1159 5.75 4.59375 5.75H3.9375V16.25H4.59375C5.1159 16.25 5.61665 16.4574 5.98587 16.8266C6.35508 17.1958 6.5625 17.6966 6.5625 18.2188V18.875H9.1875V18.2188C9.18741 17.7626 9.34572 17.3206 9.63538 16.9682C9.92504 16.6158 10.3281 16.3749 10.7756 16.2867ZM11.1562 4.4375H11.8125V4.10938C11.8125 3.8483 11.7088 3.59792 11.5242 3.41332C11.3396 3.22871 11.0892 3.125 10.8281 3.125H10.5V3.78125C10.5 3.9553 10.5691 4.12222 10.6922 4.24529C10.8153 4.36836 10.9822 4.4375 11.1562 4.4375ZM3.9375 17.5625V17.8906C3.9375 18.434 4.3785 18.875 4.92188 18.875H5.25V18.2188C5.25 18.0447 5.18086 17.8778 5.05779 17.7547C4.93472 17.6316 4.7678 17.5625 4.59375 17.5625H3.9375ZM8.65725 12.0539L8.07975 11.4764C7.8562 11.2539 7.68146 10.9873 7.56667 10.6935C7.45187 10.3998 7.39954 10.0853 7.413 9.77019C7.23778 9.83668 7.07884 9.93993 6.94686 10.073C6.81488 10.206 6.71292 10.3658 6.64785 10.5416C6.58277 10.7173 6.55609 10.905 6.5696 11.0919C6.5831 11.2788 6.63648 11.4607 6.72614 11.6252C6.8158 11.7898 6.93967 11.9333 7.08941 12.046C7.23914 12.1587 7.41128 12.238 7.59423 12.2786C7.77719 12.3192 7.96672 12.3202 8.15008 12.2814C8.33344 12.2427 8.50637 12.1651 8.65725 12.0539Z" fill="black"/>
</svg>
