<svg width="24" height="24" viewBox="0 0 24 24" fill="none" xmlns="http://www.w3.org/2000/svg">
<path d="M15.3 14C15.1343 14 15 13.8657 15 13.7V11.3C15 11.1343 15.1343 11 15.3 11H17.7C17.8657 11 18 10.8657 18 10.7V9.66113C18 9.40338 18.3036 9.26563 18.4976 9.43536L21.742 12.2742C21.8786 12.3938 21.8786 12.6062 21.742 12.7258L18.4976 15.5646C18.3036 15.7344 18 15.5966 18 15.3389V14.3C18 14.1343 17.8657 14 17.7 14H15.3ZM13.8575 7.6121C13.9461 7.66673 14 7.76338 14 7.86746V8.7C14 8.86568 13.8657 9 13.7 9H2.3C2.13431 9 2 8.86569 2 8.7V7.86746C2 7.76338 2.05394 7.66673 2.14253 7.6121L7.84253 4.0971C7.93907 4.03757 8.06093 4.03757 8.15747 4.0971L13.8575 7.6121ZM7 10.3C7 10.1343 7.13431 10 7.3 10H8.7C8.86569 10 9 10.1343 9 10.3V14.7C9 14.8657 8.86569 15 8.7 15H7.3C7.13431 15 7 14.8657 7 14.7V10.3ZM3 10.3C3 10.1343 3.13431 10 3.3 10H4.7C4.86569 10 5 10.1343 5 10.3V14.7C5 14.8657 4.86569 15 4.7 15H3.3C3.13431 15 3 14.8657 3 14.7V10.3ZM12.7 10C12.8657 10 13 10.1343 13 10.3V12.3664C13 12.4514 12.9639 12.5325 12.9007 12.5894L11.5007 13.8494C11.3076 14.0231 11 13.8861 11 13.6264V10.3C11 10.1343 11.1343 10 11.3 10H12.7ZM8.55083 16C8.73679 16 8.82098 16.2325 8.67812 16.3516C8.58448 16.4296 8.58245 16.5728 8.67385 16.6534L9.60506 17.475C9.81231 17.6579 9.68296 18 9.40657 18H2.3C2.13431 18 2 17.8657 2 17.7V16.3C2 16.1343 2.13431 16 2.3 16H8.55083ZM16.7 15C16.8657 15 17 15.1343 17 15.3V17.7C17 17.8657 16.8657 18 16.7 18H14.3C14.1343 18 14 18.1343 14 18.3V19.3389C14 19.5966 13.6964 19.7344 13.5024 19.5646L10.258 16.7258C10.1214 16.6062 10.1214 16.3938 10.258 16.2742L13.5024 13.4354C13.6964 13.2656 14 13.4034 14 13.6611V14.7C14 14.8657 14.1343 15 14.3 15H16.7Z" fill="black"/>
</svg>
