<svg width="45" height="43" viewBox="0 0 45 43" fill="none" xmlns="http://www.w3.org/2000/svg">
<circle cx="22.4998" cy="21.5003" r="16.66" fill="url(#paint0_linear_89_1781)" stroke="#05D708"/>
<g filter="url(#filter0_ddddf_89_1781)">
<circle cx="22.5" cy="21.5002" r="14.3" fill="#E5F0EA"/>
</g>
<g clip-path="url(#clip0_89_1781)">
<mask id="path-3-inside-1_89_1781" fill="white">
<path d="M22.5249 23.4825C23.6302 23.4825 24.5262 22.5865 24.5262 21.4812V17.0012C24.5262 15.896 23.6302 15 22.5249 15C21.4197 15 20.5237 15.896 20.5237 17.0012V21.4866C20.5237 22.5865 21.4197 23.4825 22.5249 23.4825ZM21.0602 17.0012C21.0602 16.1911 21.7201 15.5365 22.5249 15.5365C23.3297 15.5365 23.9896 16.1911 23.9896 17.0012V21.4866C23.9896 22.2914 23.3351 22.9513 22.5249 22.9513C21.7201 22.9513 21.0602 22.2967 21.0602 21.4866V17.0012Z"/>
</mask>
<path d="M22.5249 26.4825C25.287 26.4825 27.5262 24.2433 27.5262 21.4812H21.5262C21.5262 20.9296 21.9733 20.4825 22.5249 20.4825V26.4825ZM27.5262 21.4812V17.0012H21.5262V21.4812H27.5262ZM27.5262 17.0012C27.5262 14.2391 25.287 12 22.5249 12V18C21.9733 18 21.5262 17.5529 21.5262 17.0012H27.5262ZM22.5249 12C19.7628 12 17.5237 14.2391 17.5237 17.0012H23.5237C23.5237 17.5529 23.0765 18 22.5249 18V12ZM17.5237 17.0012V21.4866H23.5237V17.0012H17.5237ZM17.5237 21.4866C17.5237 24.2486 19.7681 26.4825 22.5249 26.4825V20.4825C23.0713 20.4825 23.5237 20.9244 23.5237 21.4866H17.5237ZM24.0602 17.0012C24.0602 17.8551 23.3698 18.5365 22.5249 18.5365V12.5365C20.0704 12.5365 18.0602 14.5271 18.0602 17.0012H24.0602ZM22.5249 18.5365C21.68 18.5365 20.9896 17.8551 20.9896 17.0012H26.9896C26.9896 14.5271 24.9794 12.5365 22.5249 12.5365V18.5365ZM20.9896 17.0012V21.4866H26.9896V17.0012H20.9896ZM20.9896 21.4866C20.9896 20.6417 21.6711 19.9513 22.5249 19.9513V25.9513C24.9991 25.9513 26.9896 23.9411 26.9896 21.4866H20.9896ZM22.5249 19.9513C23.3698 19.9513 24.0602 20.6327 24.0602 21.4866H18.0602C18.0602 23.9607 20.0704 25.9513 22.5249 25.9513V19.9513ZM24.0602 21.4866V17.0012H18.0602V21.4866H24.0602Z" fill="#002F3F" mask="url(#path-3-inside-1_89_1781)"/>
<mask id="path-5-inside-2_89_1781" fill="white">
<path d="M26.5114 20.0596C26.3611 20.0596 26.2431 20.1776 26.2431 20.3278V21.4331C26.2431 23.4558 24.6389 25.1405 22.6162 25.1727C20.5613 25.1995 18.8766 23.5363 18.8766 21.4867V20.3278C18.8766 20.1776 18.7586 20.0596 18.6084 20.0596C18.4581 20.0596 18.3401 20.1776 18.3401 20.3278V21.4331C18.3401 23.7562 20.1911 25.6824 22.5143 25.7038C23.7 25.7145 24.773 25.2424 25.5456 24.4698C26.3075 23.7079 26.7796 22.651 26.7796 21.4867V20.3278C26.7796 20.1776 26.6562 20.0596 26.5114 20.0596Z"/>
</mask>
<path d="M22.6162 25.1727L22.6554 28.1724L22.6639 28.1723L22.6162 25.1727ZM22.5143 25.7038L22.4865 28.7037L22.4871 28.7037L22.5143 25.7038ZM26.5114 17.0596C24.7043 17.0596 23.2431 18.5208 23.2431 20.3278H29.2431C29.2431 21.8345 28.018 23.0596 26.5114 23.0596V17.0596ZM23.2431 20.3278V21.4331H29.2431V20.3278H23.2431ZM23.2431 21.4331C23.2431 21.8749 22.8964 22.1678 22.5685 22.173L22.6639 28.1723C26.3814 28.1131 29.2431 25.0367 29.2431 21.4331H23.2431ZM22.577 22.1729C22.1916 22.1779 21.8766 21.8616 21.8766 21.4867H15.8766C15.8766 25.211 18.931 28.221 22.6554 28.1724L22.577 22.1729ZM21.8766 21.4867V20.3278H15.8766V21.4867H21.8766ZM21.8766 20.3278C21.8766 18.5208 20.4154 17.0596 18.6084 17.0596V23.0596C17.1017 23.0596 15.8766 21.8345 15.8766 20.3278H21.8766ZM18.6084 17.0596C16.8013 17.0596 15.3401 18.5208 15.3401 20.3278H21.3401C21.3401 21.8345 20.115 23.0596 18.6084 23.0596V17.0596ZM15.3401 20.3278V21.4331H21.3401V20.3278H15.3401ZM15.3401 21.4331C15.3401 25.3489 18.4646 28.6665 22.4865 28.7037L22.542 22.7039C21.9176 22.6982 21.3401 22.1635 21.3401 21.4331H15.3401ZM22.4871 28.7037C24.5028 28.7219 26.3429 27.9151 27.6669 26.5911L23.4243 22.3485C23.2031 22.5697 22.8972 22.7072 22.5414 22.7039L22.4871 28.7037ZM27.6669 26.5911C28.9701 25.2879 29.7796 23.4762 29.7796 21.4867H23.7796C23.7796 21.8257 23.6448 22.128 23.4243 22.3485L27.6669 26.5911ZM29.7796 21.4867V20.3278H23.7796V21.4867H29.7796ZM29.7796 20.3278C29.7796 18.4819 28.2739 17.0596 26.5114 17.0596V23.0596C25.0385 23.0596 23.7796 21.8733 23.7796 20.3278H29.7796Z" fill="#002F3F" mask="url(#path-5-inside-2_89_1781)"/>
<mask id="path-7-inside-3_89_1781" fill="white">
<path d="M24.7839 27.4634H22.8255V25.709H22.289V27.4634H20.2771C20.1268 27.4634 20.0088 27.5815 20.0088 27.7317C20.0088 27.8819 20.1268 27.9999 20.2771 27.9999H24.7839C24.9341 27.9999 25.0521 27.8819 25.0521 27.7317C25.0521 27.5815 24.9341 27.4634 24.7839 27.4634Z"/>
</mask>
<path d="M22.8255 27.4634H19.8255V30.4634H22.8255V27.4634ZM22.8255 25.709H25.8255V22.709H22.8255V25.709ZM22.289 25.709V22.709H19.289V25.709H22.289ZM22.289 27.4634V30.4634H25.289V27.4634H22.289ZM24.7839 24.4634H22.8255V30.4634H24.7839V24.4634ZM25.8255 27.4634V25.709H19.8255V27.4634H25.8255ZM22.8255 22.709H22.289V28.709H22.8255V22.709ZM19.289 25.709V27.4634H25.289V25.709H19.289ZM22.289 24.4634H20.2771V30.4634H22.289V24.4634ZM20.2771 24.4634C18.47 24.4634 17.0088 25.9246 17.0088 27.7317H23.0088C23.0088 29.2383 21.7837 30.4634 20.2771 30.4634V24.4634ZM17.0088 27.7317C17.0088 29.5388 18.47 30.9999 20.2771 30.9999V24.9999C21.7837 24.9999 23.0088 26.2251 23.0088 27.7317H17.0088ZM20.2771 30.9999H24.7839V24.9999H20.2771V30.9999ZM24.7839 30.9999C26.5909 30.9999 28.0521 29.5388 28.0521 27.7317H22.0521C22.0521 26.2251 23.2772 24.9999 24.7839 24.9999V30.9999ZM28.0521 27.7317C28.0521 25.9246 26.5909 24.4634 24.7839 24.4634V30.4634C23.2772 30.4634 22.0521 29.2383 22.0521 27.7317H28.0521Z" fill="#002F3F" mask="url(#path-7-inside-3_89_1781)"/>
</g>
<defs>
<filter id="filter0_ddddf_89_1781" x="0.199951" y="0.200195" width="44.6001" height="42.6001" filterUnits="userSpaceOnUse" color-interpolation-filters="sRGB">
<feFlood flood-opacity="0" result="BackgroundImageFix"/>
<feColorMatrix in="SourceAlpha" type="matrix" values="0 0 0 0 0 0 0 0 0 0 0 0 0 0 0 0 0 0 127 0" result="hardAlpha"/>
<feOffset dy="4"/>
<feGaussianBlur stdDeviation="1.5"/>
<feComposite in2="hardAlpha" operator="out"/>
<feColorMatrix type="matrix" values="0 0 0 0 0 0 0 0 0 0 0 0 0 0 0 0 0 0 0.25 0"/>
<feBlend mode="normal" in2="BackgroundImageFix" result="effect1_dropShadow_89_1781"/>
<feColorMatrix in="SourceAlpha" type="matrix" values="0 0 0 0 0 0 0 0 0 0 0 0 0 0 0 0 0 0 127 0" result="hardAlpha"/>
<feOffset dy="-4"/>
<feGaussianBlur stdDeviation="1.5"/>
<feComposite in2="hardAlpha" operator="out"/>
<feColorMatrix type="matrix" values="0 0 0 0 1 0 0 0 0 1 0 0 0 0 1 0 0 0 0.25 0"/>
<feBlend mode="normal" in2="effect1_dropShadow_89_1781" result="effect2_dropShadow_89_1781"/>
<feColorMatrix in="SourceAlpha" type="matrix" values="0 0 0 0 0 0 0 0 0 0 0 0 0 0 0 0 0 0 127 0" result="hardAlpha"/>
<feOffset dx="4"/>
<feGaussianBlur stdDeviation="2"/>
<feComposite in2="hardAlpha" operator="out"/>
<feColorMatrix type="matrix" values="0 0 0 0 1 0 0 0 0 1 0 0 0 0 1 0 0 0 0.5 0"/>
<feBlend mode="normal" in2="effect2_dropShadow_89_1781" result="effect3_dropShadow_89_1781"/>
<feColorMatrix in="SourceAlpha" type="matrix" values="0 0 0 0 0 0 0 0 0 0 0 0 0 0 0 0 0 0 127 0" result="hardAlpha"/>
<feOffset dx="-4"/>
<feGaussianBlur stdDeviation="2"/>
<feComposite in2="hardAlpha" operator="out"/>
<feColorMatrix type="matrix" values="0 0 0 0 1 0 0 0 0 1 0 0 0 0 1 0 0 0 0.5 0"/>
<feBlend mode="normal" in2="effect3_dropShadow_89_1781" result="effect4_dropShadow_89_1781"/>
<feBlend mode="normal" in="SourceGraphic" in2="effect4_dropShadow_89_1781" result="shape"/>
<feGaussianBlur stdDeviation="0.5" result="effect5_foregroundBlur_89_1781"/>
</filter>
<linearGradient id="paint0_linear_89_1781" x1="5.33984" y1="21.5003" x2="39.6598" y2="21.5003" gradientUnits="userSpaceOnUse">
<stop stop-color="#A1FFCE"/>
<stop offset="1" stop-color="#FAFFD1"/>
</linearGradient>
<clipPath id="clip0_89_1781">
<rect width="8.43954" height="13" fill="white" transform="translate(18.3401 15)"/>
</clipPath>
</defs>
</svg>
