<svg width="24" height="24" viewBox="0 0 24 24" fill="none" xmlns="http://www.w3.org/2000/svg">
<path d="M10.5 7.5C10.5 9.5 10.1667 10.5 7.5 10.5C4.83333 10.5 4.5 9.5 4.5 7.5C4.5 5.5 4.875 4.5 7.5 4.5C10.125 4.5 10.5 5.5 10.5 7.5Z" stroke="white" stroke-width="1.5" stroke-linecap="round" stroke-linejoin="round"/>
<path d="M10.5 16.5C10.5 18.5 10.1667 19.5 7.5 19.5C4.83333 19.5 4.5 18.5 4.5 16.5C4.5 14.5 4.875 13.5 7.5 13.5C10.125 13.5 10.5 14.5 10.5 16.5Z" stroke="white" stroke-width="1.5" stroke-linecap="round" stroke-linejoin="round"/>
<path d="M19.5 7.5C19.5 9.5 19.1667 10.5 16.5 10.5C13.8333 10.5 13.5 9.5 13.5 7.5C13.5 5.5 13.875 4.5 16.5 4.5C19.125 4.5 19.5 5.5 19.5 7.5Z" stroke="white" stroke-width="1.5" stroke-linecap="round" stroke-linejoin="round"/>
<path d="M19.5 16.5C19.5 18.5 19.1667 19.5 16.5 19.5C13.8333 19.5 13.5 18.5 13.5 16.5C13.5 14.5 13.875 13.5 16.5 13.5C19.125 13.5 19.5 14.5 19.5 16.5Z" stroke="white" stroke-width="1.5" stroke-linecap="round" stroke-linejoin="round"/>
</svg>
