<svg width="245" height="30" viewBox="0 0 245 30" fill="none" xmlns="http://www.w3.org/2000/svg">
<path d="M7.99724 23.4078C10.5205 23.4078 12.4678 22.4952 13.9569 20.7916L11.7673 18.5423C10.8559 19.516 9.69945 20.0324 8.21072 20.0324C5.6265 20.0324 3.89275 17.8734 3.89275 14.9841C3.89275 12.1872 5.65719 9.96775 8.14892 9.96775C9.45702 9.96775 10.5806 10.4539 11.4946 11.3359L13.7754 8.96475C12.4366 7.50497 10.4613 6.59229 8.21072 6.59229C3.64902 6.59229 0 10.3627 0 15.0757C0 20.0013 3.58809 23.4078 7.99724 23.4078Z" fill="white"/>
<path d="M23.607 20.0933C20.8093 20.0933 19.0155 17.8734 19.0155 14.9841C19.0155 12.2477 20.7484 9.90639 23.607 9.90639C26.4034 9.90639 28.1968 12.1263 28.1968 15.0143C28.1968 17.7519 26.4644 20.0933 23.607 20.0933ZM23.5461 23.4078C28.3805 23.4078 32.0286 19.6071 32.0286 14.9227C32.0286 10.1799 28.5927 6.59229 23.668 6.59229C18.8332 6.59229 15.1846 10.393 15.1846 15.0757C15.1841 19.8202 18.6201 23.4078 23.5461 23.4078Z" fill="white"/>
<path d="M45.521 23.1034L48.2578 14.1934C48.744 12.6429 49.1096 10.8793 49.1096 10.8793H49.1696C49.1696 10.8793 49.2012 12.6429 49.352 14.4074L50.0828 23.1034H53.67L52.0883 6.86646H47.3754L44.9122 14.9229C44.518 16.2327 44.092 17.9034 44.092 17.9034C44.092 17.9034 43.6676 16.2327 43.2402 14.8939L40.7472 6.86646H35.943L34.3618 23.1034H37.7369L38.4663 14.3464C38.6184 12.6429 38.65 10.8793 38.65 10.8793H38.71C38.71 10.8793 39.1063 12.6429 39.592 14.2548L42.3288 23.1034H45.521Z" fill="white"/>
<path d="M68.1728 23.1034L70.9091 14.1934C71.3961 12.6429 71.7609 10.8793 71.7609 10.8793H71.8218C71.8218 10.8793 71.8533 12.6429 72.0046 14.4074L72.7336 23.1034H76.3226L74.7414 6.86646H70.0284L67.566 14.9229C67.1702 16.2327 66.745 17.9034 66.745 17.9034C66.745 17.9034 66.3189 16.2327 65.8924 14.8939L63.3993 6.86646H58.5961L57.0135 23.1034H60.3895L61.1193 14.3464C61.2706 12.6429 61.3021 10.8793 61.3021 10.8793H61.3622C61.3622 10.8793 61.758 12.6429 62.2442 14.2548L64.9805 23.1034H68.1728Z" fill="white"/>
<path d="M80.2075 23.1033H90.7579V20.0023H83.7338V16.4436H89.6939V13.4039H83.7338V9.96789H90.6667V6.86597H80.2075V23.1033Z" fill="white"/>
<path d="M102.908 12.0655C102.908 13.5854 101.904 14.2245 99.9275 14.2245H98.4682V9.90609H99.9275C101.812 9.90609 102.908 10.4847 102.908 12.0655ZM107.256 23.1033L103.273 16.5654C105.369 15.7755 106.555 14.1631 106.555 12.0655C106.555 8.78123 104.702 6.86597 99.8052 6.86597H94.941V23.1029H98.4678V17.2041H99.5931L103.059 23.1029L107.256 23.1033Z" fill="white"/>
<path d="M109.338 23.1033H120.649V20.0023H113.778L120.496 9.5418V6.86597H109.49V9.96789H116.058L109.338 20.4275V23.1033Z" fill="white"/>
<path d="M127.838 16.4142H130.454C132.034 16.4142 133.037 16.8995 133.037 18.1769C133.037 19.425 132.248 20.0628 130.454 20.0628H127.838V16.4142ZM127.838 9.90615H129.875C131 9.90615 132.125 10.2704 132.125 11.6092C132.125 12.9156 131.153 13.4342 130.027 13.4342H127.839V9.90615H127.838ZM124.311 23.1034H130.513C133.403 23.1034 136.626 21.7961 136.626 18.422C136.626 16.3243 135.288 14.9229 133.16 14.6506V14.6208C134.832 14.1023 135.867 12.8261 135.867 11.0323C135.867 7.5043 132.765 6.86646 129.935 6.86646H124.312V23.1034H124.311Z" fill="white"/>
<path d="M141.364 23.1029L142.488 19.7888H148.812L149.937 23.1029H153.738L147.961 6.86646H143.582L137.805 23.1029H141.364ZM147.779 16.7478H143.521L144.952 12.4593C145.347 11.2432 145.652 10.1482 145.652 10.1482C145.652 10.1482 145.953 11.2432 146.35 12.4294L147.779 16.7478Z" fill="white"/>
<path d="M155.941 23.1033H159.227V15.3809C159.227 13.9203 159.135 12.4311 159.135 12.4311C159.135 12.4311 159.896 13.7375 160.747 15.014L166.25 23.1033H169.383V6.86597H166.098V14.2245C166.098 15.6847 166.189 17.1743 166.189 17.1743C166.189 17.1743 165.429 15.8666 164.577 14.5892L159.317 6.8664H155.941V23.1033Z" fill="white"/>
<path d="M173.285 6.86646V23.1029H176.812V15.5015L182.012 23.1029H186.36L180.4 14.4069L185.781 6.86646H181.707L176.812 14.1628V6.86646H173.285Z" fill="white"/>
<path d="M229.503 1.10115C230.189 0.656389 230.986 0.359879 231.635 0.285751C232.116 0.230156 233.692 0.248688 235.508 0.248688C235.508 0.248688 235.526 0.248688 235.526 0.26722L235.471 0.193092C235.471 0.193092 235.452 0.174561 235.304 0.174561H231.875C231.394 0.174561 229.54 0.174561 227.409 2.76902C227.446 2.80608 227.465 2.84315 227.483 2.86168C228.076 2.2316 228.762 1.58298 229.503 1.10115Z" fill="url(#paint0_radial_78_7186)"/>
<path d="M232.895 0.174561H219.459L212.751 11.8126L210.638 15.4633L210.397 15.8896L210.36 15.9452V15.9637L216.828 27.1569C216.809 27.0828 216.753 26.9902 216.753 26.9902C216.624 26.7307 216.513 26.5454 216.457 26.4157C216.198 25.8041 216.031 24.9702 216.086 24.1548C216.198 22.0051 217.328 19.8925 217.902 18.8917C219.255 16.5567 221.85 12.0535 221.85 12.0535C221.85 12.0535 224.444 7.55024 225.797 5.21522C226.372 4.2145 227.632 2.176 229.429 1.00849C230.115 0.563729 230.912 0.285751 231.579 0.211624C231.801 0.193092 232.246 0.174561 232.821 0.174561H232.895Z" fill="url(#paint1_radial_78_7186)"/>
<path d="M243.273 18.2433C242.976 18.7437 242.735 19.1329 242.605 19.2997C242.216 19.8371 241.568 20.393 240.845 20.7637C238.936 21.7459 236.527 21.82 235.378 21.82H219.589C218.44 21.82 216.049 21.7459 214.122 20.7637C213.399 20.393 212.751 19.8371 212.361 19.2997C212.232 19.1329 211.991 18.7437 211.694 18.2433C211.676 18.2063 211.657 18.2063 211.657 18.2063L212.324 19.3553L218.366 29.8257H236.583C236.583 29.8257 236.601 29.8257 236.601 29.8072L243.31 18.1877C243.31 18.1877 243.291 18.1877 243.273 18.2433Z" fill="url(#paint2_radial_78_7186)"/>
<path d="M244.588 15.9452L235.489 0.193092L235.471 0.174561H232.876L232.821 0.193092C232.228 0.193092 231.783 0.211625 231.579 0.230157C230.93 0.304284 230.115 0.582261 229.429 1.02703C228.669 1.50885 228.021 2.15747 227.465 2.80608C228.243 3.71414 228.799 4.64074 229.133 5.23376C230.486 7.56877 233.08 12.072 233.08 12.072C233.08 12.072 235.674 16.5753 237.027 18.9103C237.602 19.8925 238.732 22.0236 238.843 24.1733C238.88 24.9887 238.732 25.8226 238.473 26.4342C238.38 26.638 238.176 27.0272 237.88 27.5461C237.861 27.5832 237.861 27.6017 237.861 27.6017L244.588 15.9452Z" fill="url(#paint3_radial_78_7186)"/>
<defs>
<radialGradient id="paint0_radial_78_7186" cx="0" cy="0" r="1" gradientUnits="userSpaceOnUse" gradientTransform="translate(238.487 26.4159) scale(26.4135 26.4135)">
<stop stop-color="#FFEC5C"/>
<stop offset="0.6" stop-color="#FFE000"/>
<stop offset="0.69" stop-color="#FEDD00"/>
<stop offset="0.77" stop-color="#F9D300"/>
<stop offset="0.84" stop-color="#F1C200"/>
<stop offset="0.9" stop-color="#E6AA00"/>
<stop offset="1" stop-color="#D48F00"/>
</radialGradient>
<radialGradient id="paint1_radial_78_7186" cx="0" cy="0" r="1" gradientUnits="userSpaceOnUse" gradientTransform="translate(231.426 0.154657) scale(26.3679 26.3679)">
<stop stop-color="#FFEC5C"/>
<stop offset="0.6" stop-color="#FFE000"/>
<stop offset="0.69" stop-color="#FEDD00"/>
<stop offset="0.77" stop-color="#F9D300"/>
<stop offset="0.84" stop-color="#F1C200"/>
<stop offset="0.9" stop-color="#E6AA00"/>
<stop offset="1" stop-color="#D48F00"/>
</radialGradient>
<radialGradient id="paint2_radial_78_7186" cx="0" cy="0" r="1" gradientUnits="userSpaceOnUse" gradientTransform="translate(212.388 19.4598) scale(26.2987)">
<stop stop-color="#FFEC5C"/>
<stop offset="0.6" stop-color="#FFE000"/>
<stop offset="0.69" stop-color="#FEDD00"/>
<stop offset="0.77" stop-color="#F9D300"/>
<stop offset="0.84" stop-color="#F1C200"/>
<stop offset="0.9" stop-color="#E6AA00"/>
<stop offset="1" stop-color="#D48F00"/>
</radialGradient>
<radialGradient id="paint3_radial_78_7186" cx="0" cy="0" r="1" gradientUnits="userSpaceOnUse" gradientTransform="translate(238.486 26.3067) scale(26.4175 26.4175)">
<stop stop-color="#FFEC5C"/>
<stop offset="0.6" stop-color="#FFE000"/>
<stop offset="0.69" stop-color="#FEDD00"/>
<stop offset="0.77" stop-color="#F9D300"/>
<stop offset="0.84" stop-color="#F1C200"/>
<stop offset="0.9" stop-color="#E6AA00"/>
<stop offset="1" stop-color="#D48F00"/>
</radialGradient>
</defs>
</svg>
